# Blender v2.93.0 OBJ File: 'simpleframe.blend'
# www.blender.org
mtllib simpleframe.mtl
o 3d-model
v -98.867065 107.373726 -9.380467
v -102.997116 -18.592773 -9.381013
v -102.997116 111.504303 -9.380466
v 78.725052 111.504303 -9.380466
v 74.595001 107.373726 -9.380467
v 74.595001 -14.462724 -9.381012
v 78.725052 -18.592773 -9.381013
v -98.867065 -14.462724 -9.381012
v -98.867065 -14.462725 -3.185938
v -102.997116 111.504303 -3.185393
v -102.997116 -18.592773 -3.185939
v 78.725052 -18.592773 -3.185939
v 74.595001 -14.462725 -3.185938
v 74.595001 107.373726 -3.185394
v 78.725052 111.504303 -3.185393
v -98.867065 107.373726 -3.185394
v 74.595001 -14.462725 -7.315988
v 74.595001 107.373726 -7.315443
v -98.867065 107.373726 -7.315443
v -98.867065 -14.462725 -7.315988
v -90.606964 -6.202625 -7.315986
v -90.606964 99.113632 -7.315444
v 66.334900 99.113632 -7.315444
v 66.334900 -6.202625 -7.315986
vt -1.710800 1.279900
vt -1.678000 0.279200
vt -1.678000 1.312700
vt -3.121600 1.312700
vt -3.088800 1.279900
vt -3.088800 0.312100
vt -3.121600 0.279200
vt -1.710800 0.312100
vt 1.710800 0.312100
vt 1.678000 1.312700
vt 1.678000 0.279200
vt 3.121600 0.279200
vt 3.088800 0.312100
vt 3.088800 1.279900
vt 3.121600 1.312700
vt 1.710800 1.279900
vt -0.279200 0.000000
vt -0.279200 0.049200
vt -1.312700 0.049200
vt -1.312700 0.000000
vt -3.121600 0.000000
vt -1.678000 0.000000
vt -1.678000 0.049200
vt -3.121600 0.049200
vt 0.279200 0.049200
vt 0.279200 0.000000
vt 1.312700 0.000000
vt 1.312700 0.049200
vt 1.678000 0.000000
vt 3.121600 0.000000
vt 3.121600 0.049200
vt 1.678000 0.049200
vt -0.312100 0.016400
vt -0.312100 0.049200
vt -1.279900 0.049200
vt -1.279900 0.016400
vt 1.710800 0.016400
vt 3.088800 0.016400
vt 3.088800 0.049200
vt 1.710800 0.049200
vt 0.312100 0.049200
vt 0.312100 0.016400
vt 1.279900 0.016400
vt 1.279900 0.049200
vt -3.088800 0.016400
vt -1.710800 0.016400
vt -1.710800 0.049200
vt -3.088800 0.049200
vt 0.000000 0.000000
vt 0.000000 0.000000
vt 0.000000 0.000000
vt 0.000000 0.000000
vt 0.000000 0.000000
vt 0.000000 0.000000
vt 0.000000 0.000000
vt 0.000000 0.000000
vt 0.000000 0.000000
vt 0.000000 0.000000
vt 0.000000 0.000000
vt 0.000000 0.000000
vn 0.0000 0.0000 -1.0000
vn 0.0000 -0.0000 1.0000
vn -1.0000 0.0000 0.0000
vn 0.0000 1.0000 0.0000
vn 1.0000 0.0000 0.0000
vn 0.0000 -1.0000 0.0000
usemtl Wood_Bamboo_Medium
s 1
f 1/1/1 2/2/1 3/3/1 4/4/1
f 5/5/1 1/1/1 4/4/1 6/6/1
f 6/6/1 4/4/1 7/7/1 8/8/1
f 8/8/1 7/7/1 2/2/1 1/1/1
f 9/9/2 10/10/2 11/11/2 12/12/2
f 13/13/2 9/9/2 12/12/2 14/14/2
f 14/14/2 12/12/2 15/15/2 16/16/2
f 16/16/2 15/15/2 10/10/2 9/9/2
f 2/17/3 11/18/3 10/19/3 3/20/3
f 4/21/4 3/22/4 10/23/4 15/24/4
f 12/25/5 7/26/5 4/27/5 15/28/5
f 2/29/6 7/30/6 12/31/6 11/32/6
f 17/33/3 13/34/3 14/35/3 18/36/3
f 19/37/6 18/38/6 14/39/6 16/40/6
f 9/41/5 20/42/5 19/43/5 16/44/5
f 17/45/4 20/46/4 9/47/4 13/48/4
usemtl skp_front_default
f 21/49/1 22/50/1 23/51/1 24/52/1
f 22/50/1 20/53/1 19/54/1 18/55/1
f 23/51/1 22/50/1 18/55/1 24/52/1
f 24/52/1 18/55/1 17/56/1 21/49/1
f 21/49/1 17/56/1 20/53/1 22/50/1
f 6/57/3 17/56/3 18/55/3 5/58/3
f 6/57/4 8/59/4 20/53/4 17/56/4
f 20/53/5 8/59/5 1/60/5 19/54/5
f 1/60/6 5/58/6 18/55/6 19/54/6
o Plane
v -100.892929 -16.430347 -5.444520
v 75.807549 -16.430347 -5.444520
v -100.892929 108.837242 -5.444511
v 75.807549 108.837242 -5.444511
vt 0.000000 0.000000
vt 1.000000 0.000000
vt 1.000000 1.000000
vt 0.000000 1.000000
vn 0.0000 -0.0000 1.0000
usemtl None
s off
f 25/61/7 26/62/7 28/63/7 27/64/7
